# xmcd CD database file
#
# Track frame offsets:
#	150
#	14508
#	29304
#	43573
#	55813
#	76199
#	95182
#	108246
#	121737
#	136198
#	150677
#	164571
#	177572
#	191452
#	205868
#	219998
#	232183
#	246026
#	259670
#	271900
#	283739
#	298201
#	312876
#	325454
#	339654
#
# Disc length: 4704 seconds
#
# Revision: 0
# Processed by: cddbd v1.5.2PL0 Copyright (c) Steve Scherf et al.
# Submitted via: CDex 1.70beta2
#
DISCID=73125e19
DTITLE=Duke Ellington - The Real...Duke Ellington - CD1
DYEAR=2012
DGENRE=Jazz
TTITLE0=It Don't Mean A Thing If It Aint Got That Swing
TTITLE1=Lazy Rhapsody
TTITLE2=Blue Tune
TTITLE3=Baby When You Aint There
TTITLE4=St. Louis Blues
TTITLE5=Creole Love Call
TTITLE6=Blue Harlem
TTITLE7=The Sheik Of Araby
TTITLE8=Best Wishes
TTITLE9=Blue Ramble
TTITLE10=Clouds In My Heart
TTITLE11=Blue Mood
TTITLE12=Ducky Wucky
TTITLE13=Jazz Cocktail
TTITLE14=Lightnin
TTITLE15=Swing Low
TTITLE16=Slippery Horn
TTITLE17=Drop Me Off In Harlem
TTITLE18=Happy As The Day Is Long
TTITLE19=Get Yourself A New Broom
TTITLE20=Bundle Of Blues
TTITLE21=Sophisticated Lady
TTITLE22=Jive Stomp
TTITLE23=Harlem Speaks
TTITLE24=Daybreak Express
EXTD=YEAR: 2012
EXTT0=
EXTT1=
EXTT2=
EXTT3=
EXTT4=
EXTT5=
EXTT6=
EXTT7=
EXTT8=
EXTT9=
EXTT10=
EXTT11=
EXTT12=
EXTT13=
EXTT14=
EXTT15=
EXTT16=
EXTT17=
EXTT18=
EXTT19=
EXTT20=
EXTT21=
EXTT22=
EXTT23=
EXTT24=
PLAYORDER=
